<svg width="500" height="500" viewBox="0 0 500 500" fill="none" xmlns="http://www.w3.org/2000/svg">
<rect width="500" height="500" rx="80" fill="#B0DED9"/>
<path d="M370.069 150.766C370.414 150.768 372.906 153.431 375.655 156.61C390.437 173.712 401.781 197.174 407.024 221.238C408.656 229.144 408.914 232.754 409 250.028C409 267.473 408.742 270.825 407.024 278.99C395.765 331.327 359.498 372.321 309.996 388.822C290.402 395.267 271.925 397.587 252.33 395.869C237.892 394.665 230.673 393.119 217.439 388.736C201.797 383.579 184.351 374.298 173.694 365.446L171.288 363.469L179.194 357.539C186.671 352.039 187.273 351.696 189.078 352.813C212.368 367.509 226.978 373.181 248.291 376.017C265.135 378.165 286.792 375.93 304.152 370.172C341.451 357.797 371.444 327.546 383.991 289.818C397.57 248.566 388.546 201.987 360.529 168.9L355.803 163.313L362.592 157.039C366.373 153.602 369.726 150.766 370.069 150.766ZM226.536 239.013C228.169 234.201 228.685 233.427 229.544 234.63C231.177 236.865 239.77 256.459 242.177 263.506L244.411 270.124L240.888 275.968C224.301 303.211 198.777 330.283 170.933 350.307C149.534 365.604 125.728 377.636 99.7735 386.23C95.1327 387.777 91.1788 388.808 91.0069 388.636C90.8386 388.462 93.7599 386.486 97.5391 384.167C114.813 373.854 136.728 355.721 158.9 333.462C192.761 299.43 217.598 264.709 226.536 239.013ZM267.018 239.017C270.799 233.345 273.377 230.251 273.721 230.852C273.979 231.454 274.924 236.181 275.697 241.423C284.549 297.542 298.299 342.918 312.05 361.138L314.198 364.06L310.503 362.169C286.784 350.223 265.814 316.793 254.642 273.307C252.923 266.776 252.923 266.346 254.384 262.565C256.962 255.604 260.744 248.556 267.018 239.017ZM262.891 104.524C285.493 104.266 305.432 108.564 325.8 118.103C339.894 124.72 339.722 123.775 328.292 130.392L318.581 135.979L311.018 132.971C306.893 131.338 299.072 128.759 293.572 127.298C283.775 124.72 282.915 124.634 264.61 124.634C243.469 124.548 238.054 125.322 222.585 130.737C179.099 145.862 147.301 182.988 138.965 228.365C136.902 239.623 136.902 261.108 139.051 272.367C141.887 287.578 149.277 306.743 156.668 318.001L158.387 320.579L144.293 334.673L141.285 330.119C120.659 298.664 112.925 257.757 120.659 220.544C132.691 163.05 178.153 118.189 235.819 107.017C240.804 106.072 246.219 105.126 247.852 104.954C249.485 104.783 256.273 104.61 262.891 104.524ZM406.331 103.586C406.847 103.5 403.753 105.564 399.456 108.056C360.095 131.346 308.359 175.434 279.225 210.497C266.42 225.795 254.904 243.842 251.122 254.413C250.005 257.42 248.974 259.913 248.716 259.913C248.458 259.911 247.169 256.56 245.708 252.522C238.317 230.521 213.136 188.84 196.292 170.363C192.94 166.667 190.448 163.66 190.878 163.66C192.168 163.66 212.191 173.714 218.207 177.41C227.231 182.91 237.458 191.16 243.817 198.036L249.575 204.223L251.81 201.387C256.536 195.457 273.552 179.301 282.92 171.824C313.601 147.331 348.236 127.565 392.667 109.001C399.799 106.08 405.9 103.587 406.331 103.586ZM391.795 122.227C396.436 119.133 396.779 119.305 392.654 122.657C390.764 124.204 382.685 131.079 374.607 137.954C335.16 171.815 304.995 203.527 288.236 228.793C281.791 238.505 282.135 238.505 280.502 228.278C279.299 220.973 278.783 221.918 291.932 207.395C318.573 178.003 356.387 145.775 391.795 122.227ZM259.113 134.003C259.199 133.488 260.402 140.792 261.863 150.16C263.324 159.438 264.87 167 265.129 166.918C265.473 166.746 270.114 161.247 275.357 154.629C280.599 148.012 285.325 142.167 285.755 141.738C286.7 140.792 286.443 141.48 281.2 154.973L277.763 163.825L263.152 178.263L248.629 192.615L242.526 186.341C239.175 182.818 231.097 175.856 224.566 170.786C218.037 165.717 212.795 161.507 212.963 161.332C213.135 161.161 220.182 163.739 228.605 167.004C237.024 170.355 243.982 172.932 244.073 172.848C244.149 172.773 242.184 167.369 239.504 160.376L237.127 154.21C234.447 147.218 232.482 141.813 232.558 141.738C232.73 141.567 237.456 147.239 243.128 154.371C251.292 164.512 253.527 166.832 254.043 165.629C254.473 164.425 258.684 138.387 259.113 134.003Z" fill="#182325"/>
</svg>
