<svg width="28" height="28" viewBox="0 0 28 28" fill="none" xmlns="http://www.w3.org/2000/svg">
<path d="M21.7184 23.3334H22.2903C23.6318 23.3334 24.6988 22.7222 25.6569 21.8675C28.0907 19.6964 22.3695 17.5 20.4163 17.5M18.083 5.9136C18.3479 5.86106 18.623 5.83337 18.9052 5.83337C21.0285 5.83337 22.7497 7.40038 22.7497 9.33337C22.7497 11.2664 21.0285 12.8334 18.9052 12.8334C18.623 12.8334 18.3479 12.8057 18.083 12.7531" stroke="#141B34" stroke-width="1.5" stroke-linecap="round"/>
<path d="M5.2282 18.7964C3.85273 19.5335 0.246327 21.0386 2.44287 22.922C3.51586 23.8421 4.71089 24.5 6.21334 24.5H14.7867C16.2891 24.5 17.4841 23.8421 18.5571 22.922C20.7537 21.0386 17.1473 19.5335 15.7718 18.7964C12.5463 17.0679 8.45365 17.0679 5.2282 18.7964Z" stroke="#141B34" stroke-width="1.5"/>
<path d="M15.1667 8.75004C15.1667 11.3274 13.0773 13.4167 10.5 13.4167C7.92267 13.4167 5.83333 11.3274 5.83333 8.75004C5.83333 6.17271 7.92267 4.08337 10.5 4.08337C13.0773 4.08337 15.1667 6.17271 15.1667 8.75004Z" stroke="#141B34" stroke-width="1.5"/>
</svg>
