<svg width="26" height="26" viewBox="0 0 26 26" fill="none" xmlns="http://www.w3.org/2000/svg">
<path d="M3.31694 15.6447L3.71262 13.3233C4.18027 10.5796 4.41409 9.20772 5.34007 8.39548C6.26604 7.58325 7.59618 7.58325 10.2565 7.58325H15.7439C18.4042 7.58325 19.7343 7.58325 20.6603 8.39548C21.5862 9.20772 21.8201 10.5796 22.2877 13.3233L22.6834 15.6447C23.3305 19.4414 23.6541 21.3397 22.6577 22.5865C21.6614 23.8333 19.8208 23.8333 16.1396 23.8333H9.86078C6.17956 23.8333 4.33895 23.8333 3.3426 22.5865C2.34625 21.3397 2.66982 19.4414 3.31694 15.6447Z" stroke="white" stroke-width="1.5"/>
<path d="M8.125 9.75008L8.35793 6.48907C8.53189 4.05366 10.5584 2.16675 13 2.16675C15.4416 2.16675 17.4681 4.05366 17.6421 6.48907L17.875 9.75008" stroke="white" stroke-width="1.5" stroke-linecap="round"/>
</svg>
