<svg width="30" height="30" viewBox="0 0 30 30" fill="none" xmlns="http://www.w3.org/2000/svg">
<path d="M24.375 14.375C23.0989 10.5999 21.5048 9.375 16.7863 9.375H12.0627C7.18161 9.375 5.29348 10.61 3.94362 15.2966C2.72779 19.518 2.11987 21.6286 2.75546 23.2654C3.14469 24.2679 3.83578 25.1371 4.74117 25.763C6.55009 27.0136 11.2251 27.605 15.625 27.4847" stroke="white" stroke-width="1.5" stroke-linecap="round"/>
<path d="M8.75 10V7.95455C8.75 4.94208 11.2684 2.5 14.375 2.5C17.4816 2.5 20 4.94208 20 7.95455V10" stroke="white" stroke-width="1.5"/>
<path d="M17.5 22.5H27.5M22.5 27.5L22.5 17.5" stroke="white" stroke-width="1.5" stroke-linecap="round"/>
<path d="M13.125 13.75H15.625" stroke="white" stroke-width="1.5" stroke-linecap="round"/>
</svg>
