<svg width="18" height="18" viewBox="0 0 18 18" fill="none" xmlns="http://www.w3.org/2000/svg">
<path d="M14.625 4.125L14.1602 11.6438C14.0415 13.5648 13.9821 14.5253 13.5006 15.2159C13.2625 15.5573 12.956 15.8455 12.6005 16.062C11.8816 16.5 10.9192 16.5 8.99456 16.5C7.06734 16.5 6.10373 16.5 5.38429 16.0612C5.0286 15.8443 4.722 15.5556 4.48401 15.2136C4.00266 14.5219 3.94459 13.5601 3.82846 11.6364L3.375 4.125" stroke="#6F7276" stroke-linecap="round"/>
<path d="M6.75 8.80078H11.25" stroke="#6F7276" stroke-linecap="round"/>
<path d="M7.875 11.7402H10.125" stroke="#6F7276" stroke-linecap="round"/>
<path d="M2.25 4.125H15.75M12.0417 4.125L11.5296 3.0688C11.1895 2.36719 11.0195 2.01639 10.7261 1.7976C10.6611 1.74907 10.5922 1.70591 10.5201 1.66853C10.1953 1.5 9.80545 1.5 9.02575 1.5C8.22648 1.5 7.82684 1.5 7.49662 1.67559C7.42343 1.71451 7.3536 1.75942 7.28783 1.80988C6.99109 2.03753 6.82533 2.40116 6.49381 3.12844L6.03955 4.125" stroke="#6F7276" stroke-linecap="round"/>
</svg>
