<svg width="1345" height="300" viewBox="0 0 1345 300" fill="none" xmlns="http://www.w3.org/2000/svg">

<g id="Homepage">

<g id="Footer">

<g id="logo-dark">
<path d="M311.711 5.23034C276.226 19.9217 249.388 33.9822 223 51.5578C202.826 65.0775 188.506 76.8847 173.556 92.3873L163.198 103.023L159.146 98.4261C147.257 85.2669 126.453 71.3867 105.739 62.7341L102.316 61.292L108.17 68.0519C127.714 90.4044 151.851 130.513 159.506 153.316C160.947 157.733 162.388 161.248 162.748 161.248C163.018 161.248 163.829 159.535 164.459 157.372C167.341 147.728 177.788 130.513 190.217 114.83C220.118 77.3354 275.236 29.8362 318.015 4.68955C322.518 2.07574 325.761 -0.0874128 325.22 0.00271854C324.77 0.00271854 318.646 2.34613 311.711 5.23034Z" fill="#8CBAB5"/>
<path d="M160.407 2.25609C141.764 5.05016 128.525 8.92581 114.295 15.6857C50.8914 45.7895 17.1181 115.01 32.4287 183.781C36.0311 199.914 43.3262 217.4 52.0622 230.829L56.0249 236.958L63.41 229.477L70.7951 222.086L68.9038 219.382C65.1212 213.794 58.9069 200.365 55.9349 191.532C50.6212 175.488 49.6305 169.089 49.6305 149.981C49.7206 134.749 49.9908 131.775 52.0622 122.852C58.0063 97.615 69.8045 76.4342 87.9069 58.7684C124.562 22.806 178.149 11.9903 225.702 31.008L233.808 34.2527L243.714 28.5744C249.118 25.4198 253.621 22.6258 253.621 22.2652C253.621 21.0935 233.718 11.81 225.252 9.01594C209.671 3.87846 200.845 2.52649 181.121 2.16596C171.214 1.9857 161.938 2.07583 160.407 2.25609Z" fill="#8CBAB5"/>
<path d="M303.515 23.0768C274.064 42.9958 244.794 67.4214 219.307 93.3792C204.176 108.792 194.179 120.238 194.179 122.221C194.179 124.024 195.981 135.02 196.521 136.822C196.791 137.634 199.043 134.84 202.195 130.063C219.667 103.113 258.214 63.3655 303.155 26.0511C316.844 14.6945 316.214 15.2353 315.673 15.2353C315.403 15.2353 309.999 18.7505 303.515 23.0768Z" fill="#8CBAB5"/>
<path d="M170.765 46.9614C169.594 55.0733 168.423 62.5542 168.153 63.6357C167.703 65.3482 165.902 63.5456 156.445 51.7384C150.231 44.0772 145.097 37.768 145.007 37.768C144.917 37.768 147.709 45.0687 151.131 54.0818C154.644 63.0048 157.256 70.4857 157.076 70.7561C156.805 70.9364 149.42 68.2324 140.504 64.8074C131.678 61.3825 124.203 58.4982 124.113 58.4982C123.662 58.4982 136.631 68.8633 143.746 74.2712C146.989 76.7048 152.662 81.7521 156.355 85.6278L163.11 92.5679L168.964 85.808C172.206 82.1126 178.78 75.6232 183.554 71.2969C190.038 65.5285 192.65 62.464 193.641 59.8502C194.271 57.8673 196.523 52.0989 198.504 46.9614C200.485 41.9141 202.017 37.768 201.926 37.768C201.836 37.768 196.703 44.0772 190.489 51.8285L179.321 65.889L178.69 62.9147C178.42 61.2022 177.159 53.7213 176.079 46.1503C174.998 38.5792 173.827 32.3602 173.467 32.3602C173.197 32.3602 172.026 38.9397 170.765 46.9614Z" fill="#8CBAB5"/>
<path d="M279.11 54.8928C274.967 58.4079 271.635 61.5625 271.635 61.8329C271.635 62.1033 273.436 64.3566 275.687 66.7901C289.107 81.7519 300.274 104.826 304.687 126.727C307.209 139.166 306.939 164.222 304.237 176.48C294.781 218.752 267.852 251.92 229.305 268.955C213.184 275.985 196.883 279.32 177.97 279.32C149.69 279.32 130.687 273.281 101.867 255.074C99.9761 253.813 99.3457 254.083 91.5103 259.942L83.2246 266.161L85.8364 268.234C96.4637 276.886 117.538 288.153 131.588 292.749C195.892 313.48 266.051 288.693 303.156 232.001C331.706 188.287 334.858 130.874 311.262 83.825C305.948 73.0993 297.663 60.6612 291.268 53.631L286.495 48.4034L279.11 54.8928Z" fill="#8CBAB5"/>
<path d="M181.572 138.265C172.295 152.235 167.612 162.239 167.702 168.008C167.882 176.751 176.438 201.717 185.264 219.383C195.081 238.941 208.86 255.435 221.739 262.916C225.162 264.989 228.314 266.702 228.674 266.702C229.034 266.702 227.503 263.998 225.342 260.573C220.298 252.731 218.677 249.487 213.724 236.958C205.618 216.679 198.233 186.755 191.568 148.179L188.146 128.35L181.572 138.265Z" fill="#8CBAB5"/>
<path d="M139.783 139.166C130.957 164.132 106.55 198.833 74.6683 231.55C51.6124 255.255 26.1248 276.526 7.75214 287.432C3.24903 290.045 -0.17333 292.389 0.00679459 292.659C0.727292 293.38 23.1528 285.539 34.6807 280.582C73.0472 263.997 110.243 235.606 136.721 202.618C144.647 192.794 157.075 174.497 157.796 171.613C158.426 169.179 153.473 155.66 146.988 141.87L142.305 132.045L139.783 139.166Z" fill="#8CBAB5"/>
<path d="M931.324 61.7284C929.786 68.2691 928.505 74.0404 928.505 74.5534C928.505 77.2467 932.221 75.0664 935.041 70.8342C940.679 62.2414 943.627 60.9589 959.39 60.4459L973.358 59.9329V106.744C973.358 160.353 973.743 158.686 962.721 159.84C958.749 160.353 956.698 161.123 956.698 162.277C956.698 163.688 961.055 164.072 979.766 164.072C998.476 164.072 1002.83 163.688 1002.83 162.277C1002.83 161.251 1000.78 160.353 997.579 159.84C987.711 158.558 988.096 160.738 988.096 107.899V60.8306H1002.19C1020.01 60.9589 1023.85 62.6261 1026.03 71.0907C1028.46 80.7094 1030.51 78.2727 1032.18 63.7804C1032.95 56.7266 1033.33 50.5706 1033.08 50.3141C1032.82 49.9293 1030.9 50.9553 1028.85 52.4943C1025.26 55.0593 1024.23 55.1876 982.457 54.8028C943.499 54.4181 939.782 54.2898 938.629 52.1096C936.066 47.6208 934.144 50.0576 931.324 61.7284Z" fill="#8CBAB5"/>
<path d="M665.158 53.7769C631.838 60.4459 611.334 88.9175 617.101 120.467C622.611 150.734 648.883 168.305 685.662 166.381C691.942 165.996 700.912 164.714 705.398 163.431C712.702 161.379 713.727 160.61 715.522 156.506C718.213 149.965 720.904 139.448 720.135 138.166C718.597 135.729 716.034 137.525 713.856 142.398C703.219 165.74 665.67 167.792 646.063 145.989C627.994 125.982 628.634 88.0198 647.216 69.9365C666.439 51.2119 703.219 54.8029 711.421 76.349C712.702 79.8118 714.368 81.992 715.65 81.992C717.444 81.992 717.572 80.7095 716.547 69.8082L715.393 57.6244L710.78 56.3419C696.811 52.7509 676.435 51.5966 665.158 53.7769Z" fill="#8CBAB5"/>
<path d="M1145.73 54.2894C1129.07 58.3934 1115.87 69.423 1108.31 85.3261C1104.2 93.9189 1103.56 96.4839 1103.18 107.385C1102.67 117.26 1103.05 121.493 1105.1 127.649C1110.23 144.065 1122.27 156.762 1138.55 162.918C1147.65 166.38 1165.21 167.535 1174.69 165.354C1191.22 161.507 1205.83 149.451 1213.39 133.677C1217.36 125.34 1217.49 124.314 1217.49 108.924C1217.49 93.5341 1217.36 92.5081 1213.39 84.3001C1205.96 68.5252 1192.12 57.2392 1176.1 53.9047C1167.38 52.1092 1153.93 52.2374 1145.73 54.2894ZM1176.35 61.9845C1192.5 69.8078 1201.47 88.4041 1201.47 113.541C1201.47 135.472 1194.17 150.221 1180.07 157.275C1173.79 160.353 1171.1 160.866 1162.39 160.866C1153.8 160.737 1151.11 160.224 1145.73 157.403C1129.19 148.682 1119.45 129.316 1119.45 105.077C1119.45 82.7611 1128.04 67.7557 1144.57 60.702C1154.57 56.4697 1166.1 56.9827 1176.35 61.9845Z" fill="#8CBAB5"/>
<path d="M409.491 56.855C409.491 57.881 411.414 59.0353 413.977 59.42C422.307 61.0873 422.307 60.959 422.307 109.694C422.307 159.456 422.563 158.429 412.311 159.84C408.979 160.353 406.928 161.251 406.928 162.277C406.928 163.816 413.72 164.073 448.322 163.816L489.586 163.431L493.175 152.658C495.866 144.578 496.379 141.5 495.353 140.474C494.2 139.448 493.431 139.705 492.021 141.629C480.103 158.301 479.206 158.814 460.752 158.814C454.088 158.814 446.527 158.173 444.092 157.275C437.172 154.838 436.403 151.889 436.788 130.086L437.044 110.849L449.219 110.464C463.956 110.079 467.16 111.362 469.21 118.544C469.979 121.493 471.517 123.802 472.67 124.058C474.593 124.443 474.721 122.648 474.465 107.386C474.208 93.4064 473.824 90.3284 472.286 90.3284C471.133 90.3284 470.107 92.2522 469.338 95.7149C468.826 98.6647 467.672 101.614 466.775 102.256C464.725 103.923 444.092 105.718 439.735 104.564L436.403 103.666L436.66 82.2486L437.044 60.8308H453.319C472.158 60.8308 474.721 61.985 479.719 72.1168C483.948 80.8379 486.126 79.1706 484.973 68.1411C484.332 63.3958 483.948 58.5223 483.948 57.2398C483.82 55.1878 481.128 55.0595 446.656 55.0595C415.771 55.0595 409.491 55.316 409.491 56.855Z" fill="#8CBAB5"/>
<path d="M506.888 56.9831C506.888 58.0091 508.939 59.4198 511.758 60.0611C514.449 60.8306 518.55 63.5239 521.113 66.2171C526.624 71.9884 553.023 109.951 553.023 112.003C553.023 114.568 525.47 150.478 520.344 154.838C517.525 157.019 513.039 159.327 510.22 159.84C507.401 160.481 504.966 161.636 504.581 162.533C504.197 163.688 508.554 164.072 522.779 164.072C538.542 164.072 541.489 163.816 541.489 162.149C541.489 160.994 540.336 160.225 538.67 160.225C537.004 160.225 534.825 159.712 533.8 158.942C532.262 157.916 532.262 157.147 534.313 152.915C536.876 147.528 555.202 119.569 556.867 118.543C558.149 117.774 583.779 154.197 583.779 156.762C583.779 158.942 581.088 160.225 576.603 160.225C574.681 160.225 573.527 160.994 573.527 162.149C573.527 163.816 576.859 164.072 595.313 164.072C612.87 164.072 617.099 163.688 617.099 162.277C617.099 161.251 615.049 160.353 611.973 159.84C609.025 159.455 605.309 158.301 603.643 157.147C601.08 155.48 579.294 126.238 569.17 110.592L565.582 105.334L577.5 88.7892C592.366 68.2691 599.798 60.7024 606.078 59.5481C608.769 59.0351 610.691 57.8808 610.691 56.8548C610.691 55.4441 607.359 55.0593 593.391 55.0593C578.91 55.0593 576.09 55.3158 576.09 56.9831C576.09 58.0091 577.244 58.9068 578.781 58.9068C580.191 58.9068 582.498 59.5481 583.908 60.1893C586.214 61.4719 586.214 61.7284 584.292 65.7041C581.216 71.4754 562.763 99.947 561.994 99.947C560.968 99.947 537.388 65.3194 536.748 62.7544C536.235 60.8306 536.876 60.0611 539.695 59.5481C545.718 58.1373 546.615 57.7526 546.615 56.3418C546.615 55.5723 539.567 55.0593 526.752 55.0593C510.22 55.0593 506.888 55.3158 506.888 56.9831Z" fill="#8CBAB5"/>
<path d="M737.563 56.7267C737.563 57.7528 739.741 59.0353 742.304 59.6765C750.378 61.6003 750.506 61.985 750.122 111.105C749.737 160.738 750.122 158.686 739.613 159.84C735.768 160.353 733.718 161.123 733.718 162.277C733.718 163.816 740.638 164.073 775.624 163.816L817.401 163.431L820.477 154.454C825.731 138.935 822.912 135.473 815.095 147.785C808.815 157.532 805.74 158.814 788.183 158.686C765.884 158.686 764.859 157.66 763.706 135.088C763.193 126.623 763.193 117.518 763.706 114.953L764.603 110.207H776.649C792.54 110.207 794.847 111.105 796.641 118.544C797.666 122.391 798.819 124.315 800.229 124.315C802.023 124.315 802.279 122.263 802.151 107.386C802.023 93.9194 801.639 90.3284 800.229 90.3284C799.332 90.3284 797.794 92.8934 796.897 96.3562C795.872 99.5625 794.334 102.64 793.181 103.025C789.336 104.564 767.678 105.205 765.756 103.923C764.218 102.897 763.706 99.0495 763.449 86.9939C763.193 78.2729 763.321 68.7823 763.834 65.576L764.731 59.933L781.006 60.446C799.973 60.959 802.664 62.1133 807.149 71.4756C808.687 74.6818 810.609 77.2468 811.25 77.1186C812.532 76.7338 812.532 60.1895 811.25 56.5985C810.353 54.29 737.563 54.29 737.563 56.7267Z" fill="#8CBAB5"/>
<path d="M840.212 56.2136C837.521 58.0091 839.443 59.8046 844.954 60.7024C853.668 61.9849 853.54 61.2154 853.925 106.873C854.437 155.608 854.053 157.66 845.467 159.455C842.391 160.097 840.084 161.379 840.084 162.277C840.084 163.688 844.313 164.072 861.87 164.072C880.324 164.072 883.656 163.816 883.656 162.149C883.656 160.994 882.503 160.225 880.58 160.225C873.916 160.225 869.687 157.66 868.278 152.786C866.868 147.656 866.484 65.7041 867.765 62.2414C868.918 59.0351 882.631 59.4198 889.679 62.8826C903.135 69.4234 907.108 91.739 896.856 103.795C893.396 107.899 886.86 111.746 880.837 113.285C875.07 114.568 876.736 116.62 883.656 116.62C893.011 116.62 903.776 112.131 910.055 105.718C918.641 96.869 920.436 83.531 914.541 71.9884C911.337 65.7041 907.364 62.2414 899.675 58.6503C893.78 55.9571 891.217 55.7006 867.637 55.3158C853.412 55.1876 841.238 55.4441 840.212 56.2136Z" fill="#8CBAB5"/>
<path d="M1047.69 56.9831C1047.69 58.2656 1048.97 58.9068 1051.54 58.9068C1053.97 58.9068 1056.66 60.0611 1058.58 62.1131L1061.79 65.1911V109.181C1061.79 158.814 1061.92 158.301 1052.69 159.712C1049.74 160.225 1047.69 161.251 1047.69 162.277C1047.69 163.688 1051.79 164.072 1068.84 164.072C1085.88 164.072 1089.98 163.688 1089.98 162.277C1089.98 161.251 1087.93 160.225 1084.98 159.712C1075.76 158.301 1075.88 158.686 1075.88 109.566C1075.88 60.4458 1075.76 60.8306 1084.98 59.4198C1087.93 58.9068 1089.98 57.8808 1089.98 56.8548C1089.98 55.4441 1085.88 55.0593 1068.84 55.0593C1050.89 55.0593 1047.69 55.3158 1047.69 56.9831Z" fill="#8CBAB5"/>
<path d="M1224.54 56.8545C1224.54 58.0088 1226.46 59.0348 1229.53 59.5478C1235.05 60.4455 1239.53 63.9083 1240.56 68.2688C1241.07 69.8078 1241.2 89.9432 1240.94 112.9C1240.56 159.199 1240.68 158.429 1232.1 159.712C1229.15 160.225 1227.1 161.251 1227.1 162.277C1227.1 163.687 1230.94 164.072 1246.32 164.072C1261.7 164.072 1265.55 163.687 1265.55 162.277C1265.55 161.122 1263.37 160.225 1259.14 159.712C1254.4 159.07 1252.35 158.173 1251.19 155.992C1249.53 153.299 1248.12 100.716 1249.14 83.4024L1249.53 76.4769L1284.13 116.106C1303.22 137.909 1320.78 158.173 1323.21 161.122C1325.65 164.2 1328.34 166.637 1329.24 166.637C1330.39 166.637 1330.9 154.325 1331.16 116.235C1331.42 88.6607 1332.06 64.9343 1332.7 63.6518C1333.21 62.4976 1336.29 60.8303 1339.36 60.0608C1342.57 59.163 1345 57.8805 1345 56.8545C1345 55.4438 1341.28 55.059 1325.78 55.059C1309.5 55.059 1306.55 55.3155 1306.55 56.9828C1306.55 58.0088 1307.58 58.9065 1308.86 58.9065C1310.01 58.9065 1313.22 59.5478 1315.78 60.189C1319.75 61.3433 1320.78 62.3693 1321.93 66.3451C1323.73 72.6294 1325.26 133.42 1323.73 136.242C1322.7 138.037 1319.24 134.959 1303.73 117.645C1271.44 81.4786 1261.7 70.0643 1256.83 62.4976L1252.09 55.1873H1238.38C1227.23 55.059 1224.54 55.4438 1224.54 56.8545Z" fill="#8CBAB5"/>
<path d="M548.535 198.7C544.05 203.317 544.947 204.727 550.586 201.906C554.43 199.854 554.943 199.854 558.403 201.906C560.454 203.06 562.504 203.701 562.888 203.317C564.17 202.162 556.737 194.852 554.302 194.852C553.149 194.852 550.586 196.519 548.535 198.7Z" fill="#8CBAB5"/>
<path d="M648.754 204.728C648.37 205.241 647.729 207.806 647.217 210.242L646.319 214.731L649.395 211.781C651.702 209.729 654.009 208.96 658.494 208.96H664.517V225.761C664.517 242.561 663.492 247.435 660.032 247.435C659.007 247.435 658.109 247.948 658.109 248.718C658.109 249.487 661.698 250 666.439 250C674.513 250 677.461 248.461 672.206 247.05C669.771 246.409 669.643 245.255 669.643 227.684V208.96H676.051C681.818 208.96 682.715 209.345 683.74 212.166C685.406 216.527 685.918 216.27 686.431 210.499L686.944 205.754L669.899 206.138C658.494 206.395 652.214 206.138 651.061 205.112C650.164 204.343 649.139 204.215 648.754 204.728Z" fill="#8CBAB5"/>
<path d="M552.64 207.934C551.487 209.473 548.283 217.553 545.335 225.632C538.672 243.716 536.877 247.435 534.443 247.435C533.417 247.435 532.52 247.948 532.52 248.718C532.52 249.359 535.468 250 538.928 250C542.516 250 545.335 249.359 545.335 248.718C545.335 247.948 544.438 247.435 543.285 247.435C540.978 247.435 541.363 244.229 544.695 236.277C546.361 232.301 546.873 232.045 552.384 232.045C557.894 232.045 558.407 232.301 560.073 236.277C563.405 244.229 563.789 247.435 561.483 247.435C560.329 247.435 559.432 247.948 559.432 248.718C559.432 249.487 562.892 250 567.121 250C575.195 250 576.733 248.974 571.991 246.794C569.813 245.768 567.762 241.151 562.764 226.017C559.176 215.372 555.844 206.138 555.331 205.754C554.947 205.241 553.665 206.267 552.64 207.934ZM555.331 221.785L558.023 229.48H546.745L549.565 221.785C551.102 217.553 552.512 214.09 552.64 214.09C552.64 214.09 553.922 217.553 555.331 221.785Z" fill="#8CBAB5"/>
<path d="M874.041 206.651C870.068 208.832 868.274 211.653 868.274 216.142C868.274 222.554 869.3 224.093 877.245 229.48C887.369 236.405 889.163 244.101 881.346 247.307C876.476 249.359 871.478 247.307 868.915 242.305C866.48 237.431 865.711 237.431 865.711 242.177C865.711 247.82 868.659 250 876.476 250C887.754 250 893.136 243.459 890.06 233.84C889.035 230.634 886.472 227.941 881.09 224.35C872.632 218.579 870.966 215.372 873.913 210.884C877.245 205.754 885.319 206.78 887.882 212.679L889.291 216.014L889.804 212.166C890.06 209.601 889.548 207.934 888.01 206.78C885.19 204.728 877.629 204.599 874.041 206.651Z" fill="#8CBAB5"/>
<path d="M979.897 208.447C976.821 211.012 975.924 212.807 975.924 216.27C975.924 220.887 978.231 223.709 989.893 233.456C996.044 238.714 994.763 246.281 987.33 248.076C984.895 248.718 982.973 248.076 980.025 245.511C977.719 243.587 975.924 241.279 975.924 240.253C975.924 239.227 975.284 238.457 974.515 238.457C972.721 238.457 973.874 245.64 976.052 248.333C976.95 249.359 980.153 250 984.511 250C990.534 250 992.072 249.487 995.275 246.281C1001.81 239.612 999.504 231.275 988.996 224.478C981.563 219.733 979.256 215.885 981.563 211.397C982.588 209.088 984.254 208.19 987.843 207.934C991.943 207.549 992.84 208.062 995.147 211.781L997.71 216.014V211.397C997.71 207.549 997.198 206.523 994.891 205.882C988.74 204.343 983.742 205.112 979.897 208.447Z" fill="#8CBAB5"/>
<path d="M417.179 207.549C417.179 208.19 418.332 208.96 419.742 209.345C422.177 209.986 422.305 211.14 422.305 228.197C422.305 245.255 422.177 246.409 419.742 247.05C414.488 248.461 417.435 250 425.509 250C430.25 250 433.839 249.487 433.839 248.718C433.839 247.948 432.685 247.435 431.276 247.435C427.816 247.435 427.303 244.357 427.687 224.991L428.072 208.319L431.916 208.575C436.146 208.96 441.528 214.09 441.528 217.937C441.528 222.298 438.837 226.53 434.736 228.71L430.635 230.891L435.633 230.249C442.553 229.352 446.654 225.119 446.654 219.092C446.654 212.551 445.629 210.499 441.4 208.319C437.427 206.267 417.179 205.625 417.179 207.549Z" fill="#8CBAB5"/>
<path d="M769.088 207.677C772.548 209.088 773.445 213.577 773.445 228.967C773.445 241.792 772.035 247.435 768.959 247.435C767.934 247.435 767.037 247.948 767.037 248.718C767.037 249.487 770.625 250 775.367 250C783.441 250 786.388 248.461 781.134 247.05C778.699 246.409 778.571 245.255 778.571 227.684C778.571 209.345 778.699 208.832 781.518 207.677C783.569 206.908 782.031 206.523 775.367 206.523C769.216 206.523 767.294 206.908 769.088 207.677Z" fill="#8CBAB5"/>
<path d="M1082.29 207.293C1086.65 208.832 1087.42 211.91 1087.42 227.684C1087.42 245.127 1086.9 247.435 1083.44 247.435C1082.16 247.435 1081.01 247.948 1081.01 248.718C1081.01 249.487 1084.6 250 1089.34 250C1097.41 250 1100.36 248.461 1095.11 247.05C1092.67 246.409 1092.54 245.255 1092.54 227.813C1092.54 209.986 1092.67 209.345 1095.49 207.934C1097.8 206.78 1096.64 206.523 1089.34 206.523C1084.47 206.651 1081.27 206.908 1082.29 207.293Z" fill="#8CBAB5"/>
<path d="M1181.99 207.934C1184.68 209.345 1184.81 209.986 1184.81 227.813C1184.81 245.255 1184.68 246.409 1182.25 247.05C1175.71 248.718 1181.09 250 1195.19 250H1210.57L1212.49 245.383C1215.05 239.227 1213.9 238.457 1209.8 243.459C1206.85 246.922 1205.57 247.435 1200.44 247.435C1197.11 247.435 1193.78 246.922 1192.88 246.409C1191.09 245.255 1189.42 234.482 1190.58 230.891C1191.73 226.915 1200.32 227.043 1203.14 231.019C1205.06 233.84 1205.19 233.712 1205.19 227.171C1205.31 222.939 1204.8 220.631 1204.03 221.144C1203.39 221.528 1202.75 222.811 1202.75 223.837C1202.75 225.376 1201.34 225.632 1196.73 225.376L1190.58 224.991V209.601L1197.88 209.216C1204.67 208.832 1205.31 209.088 1207.11 212.423L1209.03 216.014L1209.16 211.14V206.395L1194.16 206.523C1182.37 206.523 1179.68 206.908 1181.99 207.934Z" fill="#8CBAB5"/>
<path d="M1294.38 207.677C1294.77 208.319 1296.05 208.96 1297.07 208.96C1298.48 208.96 1298.87 212.294 1298.87 227.684C1298.87 245.255 1298.74 246.409 1296.3 247.05C1291.05 248.461 1294 250 1302.07 250C1306.81 250 1310.4 249.487 1310.4 248.718C1310.4 247.948 1309.5 247.435 1308.48 247.435C1305.92 247.435 1303.99 242.305 1303.99 235.892C1303.99 226.402 1309.38 227.556 1316.04 238.457C1321.68 247.563 1324.88 250 1330.91 250H1335.39L1331.42 247.563C1329.24 246.281 1325.01 241.535 1322.19 237.175L1316.81 229.223L1320.65 225.632C1325.65 220.887 1325.91 214.09 1321.29 209.601C1318.47 206.651 1317.32 206.395 1305.92 206.395C1297.97 206.395 1293.87 206.908 1294.38 207.677ZM1316.17 211.525C1322.32 217.681 1317.19 228.839 1308.61 227.941C1304.63 227.556 1304.63 227.428 1304.25 219.476C1303.74 209.986 1305.4 207.164 1310.27 208.319C1312.07 208.703 1314.76 210.242 1316.17 211.525Z" fill="#8CBAB5"/>
</g>
</g>
</g>
</svg>
