<svg width="13" height="11" viewBox="0 0 13 11" fill="none" xmlns="http://www.w3.org/2000/svg">
<path d="M2.83333 9.83333H1.66667M5.16667 7.5H0.5M5.16667 9.83333H7.5C9.13349 9.83333 9.95023 9.83333 10.5741 9.51544C11.1229 9.2358 11.5691 8.78961 11.8488 8.24081C12.1667 7.6169 12.1667 6.80015 12.1667 5.16667C12.1667 3.53318 12.1667 2.71644 11.8488 2.09253C11.5691 1.54372 11.1229 1.09753 10.5741 0.817898C9.95023 0.5 9.13349 0.5 7.5 0.5H5.16667C3.53318 0.5 2.71644 0.5 2.09253 0.817898C1.54372 1.09753 1.09753 1.54372 0.817898 2.09253C0.5 2.71644 0.5 3.53318 0.5 5.16667M2.83333 2.83333L4.81368 4.13906C5.37695 4.51044 5.65858 4.69613 5.96232 4.76728C6.23075 4.83016 6.51024 4.82872 6.778 4.7631C7.081 4.68884 7.36071 4.50027 7.92014 4.12312L9.83333 2.83333" stroke="#425486" stroke-linecap="round" stroke-linejoin="round"/>
</svg>
