<svg width="12" height="12" viewBox="0 0 12 12" fill="none" xmlns="http://www.w3.org/2000/svg">
<path d="M4.06011 1.05419C3.32119 0.315269 2.12316 0.31527 1.38424 1.05419L1.10485 1.33358C0.730608 1.70782 0.482773 2.20098 0.500936 2.72992C0.56614 4.62888 1.46907 6.70094 3.13406 8.36593C4.79906 10.0309 6.87112 10.9339 8.77007 10.9991C9.29902 11.0172 9.79218 10.7694 10.1664 10.3951L10.4458 10.1158C11.1847 9.37684 11.1847 8.17881 10.4458 7.43989L10.3355 7.3296C9.74513 6.73921 8.81444 6.66218 8.13502 7.14748C7.75867 7.4163 7.28324 7.53661 6.84938 7.37639C6.25662 7.1575 5.68649 6.79946 5.19351 6.30649C4.70053 5.81351 4.3425 5.24338 4.12361 4.65062C3.96339 4.21676 4.0837 3.74133 4.35252 3.36498C4.83782 2.68556 4.76079 1.75487 4.1704 1.16448L4.06011 1.05419Z" stroke="#425486" stroke-linecap="round" stroke-linejoin="round"/>
</svg>
